<svg version="1.1" xmlns="http://www.w3.org/2000/svg" viewBox="0 0 6199.446644543419 2661.880473691748" width="12398.893289086838" height="5323.760947383496" filter="invert(93%) hue-rotate(180deg)">
  <!-- svg-source:excalidraw -->
  
  <defs>
    <style class="style-fonts">
      @font-face {
        font-family: "Virgil";
        src: url("https://excalidraw.com/Virgil.woff2");
      }
      @font-face {
        font-family: "Cascadia";
        src: url("https://excalidraw.com/Cascadia.woff2");
      }
      @font-face {
        font-family: "Assistant";
        src: url("https://excalidraw.com/Assistant-Regular.woff2");
      }
    </style>
    
  </defs>
  <rect x="0" y="0" width="6199.446644543419" height="2661.880473691748" fill="#ffffff"></rect><g stroke-linecap="round" transform="translate(424.4345695959334 1679.3659159973104) rotate(0 120.68170588486907 72.70436483592428)"><path d="M32 0 C78.74 0.91, 122.19 0.52, 209.36 0 M32 0 C96.26 -1.91, 160.63 -1.03, 209.36 0 M209.36 0 C229.72 -0.98, 241.55 11.32, 241.36 32 M209.36 0 C232.62 -1.31, 241.04 9.66, 241.36 32 M241.36 32 C242.95 60.62, 242.12 89.93, 241.36 113.41 M241.36 32 C241 61.57, 240.79 90.1, 241.36 113.41 M241.36 113.41 C240.58 133.54, 230.49 143.69, 209.36 145.41 M241.36 113.41 C243.16 136.56, 231.31 146.16, 209.36 145.41 M209.36 145.41 C170.18 145.53, 130.42 146.28, 32 145.41 M209.36 145.41 C142.29 145.07, 76.22 145.27, 32 145.41 M32 145.41 C9.36 145.27, 1.35 133.6, 0 113.41 M32 145.41 C8.46 145.8, 0.4 137.02, 0 113.41 M0 113.41 C0.27 96.75, -0.99 78.37, 0 32 M0 113.41 C-0.06 88.49, -0.03 64.92, 0 32 M0 32 C-0.31 12.63, 10.68 -0.29, 32 0 M0 32 C2.12 11.14, 12.76 0.96, 32 0" stroke="#1e1e1e" stroke-width="2" fill="none"></path></g><g transform="translate(456.3038398883709 1741.6581670153407) rotate(0 92.41991424560547 12.5)"><text x="0" y="0" font-family="Virgil, Segoe UI Emoji" font-size="20px" fill="#1e1e1e" text-anchor="start" style="white-space: pre;" direction="ltr" dominant-baseline="text-before-edge">Scientific Research</text></g><g stroke-linecap="round" transform="translate(439.86726407053266 1914.6159756467891) rotate(0 120.68170588486907 72.70436483592425)"><path d="M32 0 C75.59 -2.23, 114.27 -2.18, 209.36 0 M32 0 C99.41 -0.21, 167.97 -1.07, 209.36 0 M209.36 0 C230.44 -1.92, 239.73 10.26, 241.36 32 M209.36 0 C231.4 -1.63, 243.23 12.67, 241.36 32 M241.36 32 C241.37 63.8, 243.27 92.94, 241.36 113.41 M241.36 32 C240.81 54.59, 240.77 76.54, 241.36 113.41 M241.36 113.41 C239.83 134.75, 229.55 144.05, 209.36 145.41 M241.36 113.41 C239.38 132.61, 232.7 143.84, 209.36 145.41 M209.36 145.41 C156.03 143.94, 101.11 144.25, 32 145.41 M209.36 145.41 C148.38 146.46, 86.82 148.01, 32 145.41 M32 145.41 C10.01 145.94, -0.25 133.99, 0 113.41 M32 145.41 C9.89 145.37, -1.63 136.44, 0 113.41 M0 113.41 C-0.95 91.7, 0.25 72.67, 0 32 M0 113.41 C1.02 81.79, -0.25 51.28, 0 32 M0 32 C0.05 9.57, 11.9 1.67, 32 0 M0 32 C-1.21 12.63, 11.77 -0.22, 32 0" stroke="#1e1e1e" stroke-width="2" fill="none"></path></g><g transform="translate(465.97120027734917 1967.6090203125166) rotate(0 102.27989959716797 12.5)"><text x="0" y="0" font-family="Virgil, Segoe UI Emoji" font-size="20px" fill="#1e1e1e" text-anchor="start" style="white-space: pre;" direction="ltr" dominant-baseline="text-before-edge">YouTube Transcripts</text></g><g stroke-linecap="round" transform="translate(437.3827620708681 1461.7481345024119) rotate(0 120.68170588486907 72.70436483592428)"><path d="M32 0 C99.11 -1.12, 171.06 0.86, 209.36 0 M32 0 C89.51 -0.62, 148.16 -0.77, 209.36 0 M209.36 0 C232.61 -1.63, 241.32 9.28, 241.36 32 M209.36 0 C229.36 -1, 239.96 11.68, 241.36 32 M241.36 32 C240.3 52.43, 241.79 74.53, 241.36 113.41 M241.36 32 C241.46 55.47, 241.3 79.07, 241.36 113.41 M241.36 113.41 C240.11 136.34, 232.39 145.65, 209.36 145.41 M241.36 113.41 C240.31 133.39, 229.67 144.9, 209.36 145.41 M209.36 145.41 C172.98 144.78, 136.24 143.24, 32 145.41 M209.36 145.41 C153.63 143.26, 96.82 143.26, 32 145.41 M32 145.41 C9.68 144.27, -1.97 133.53, 0 113.41 M32 145.41 C12 143.86, -2.01 133.87, 0 113.41 M0 113.41 C1.62 97.35, 2.05 75.99, 0 32 M0 113.41 C-0.86 95.74, -1.31 78.72, 0 32 M0 32 C-0.12 11.55, 12.39 -1.15, 32 0 M0 32 C2.29 12.42, 10.53 -0.48, 32 0" stroke="#1e1e1e" stroke-width="2" fill="none"></path></g><g transform="translate(477.69404729827664 1516.613966143249) rotate(0 86.44992065429688 12.5)"><text x="0" y="0" font-family="Virgil, Segoe UI Emoji" font-size="20px" fill="#1e1e1e" text-anchor="start" style="white-space: pre;" direction="ltr" dominant-baseline="text-before-edge">Company Websites</text></g><g stroke-linecap="round" transform="translate(754.8263521338555 1580.6627676393546) rotate(0 120.68170588486907 72.70436483592428)"><path d="M32 0 C82.35 -1.88, 136.09 -0.02, 209.36 0 M32 0 C76.3 0.31, 119.16 -0.74, 209.36 0 M209.36 0 C231.67 1.21, 242.77 11.85, 241.36 32 M209.36 0 C231.44 -1.17, 239.12 12.49, 241.36 32 M241.36 32 C238.77 63.8, 241.09 93.23, 241.36 113.41 M241.36 32 C241.38 58.57, 242.08 87.15, 241.36 113.41 M241.36 113.41 C239.7 133.73, 230.54 146.64, 209.36 145.41 M241.36 113.41 C243.61 133.29, 232.17 144.87, 209.36 145.41 M209.36 145.41 C167.46 143.79, 123.03 142.1, 32 145.41 M209.36 145.41 C174.22 144.16, 137.81 144.01, 32 145.41 M32 145.41 C10.78 147.2, 0.97 134.89, 0 113.41 M32 145.41 C11.3 146.54, -2.26 135.93, 0 113.41 M0 113.41 C-0.56 91.36, 2.13 72.7, 0 32 M0 113.41 C-0.02 82.8, -0.03 54.98, 0 32 M0 32 C-1.82 9.91, 9.17 -0.25, 32 0 M0 32 C0.53 8.66, 11.92 2.2, 32 0" stroke="#1e1e1e" stroke-width="2" fill="none"></path></g><g transform="translate(780.5275708828422 1649.5398102743825) rotate(0 99.84990692138672 12.5)"><text x="0" y="0" font-family="Virgil, Segoe UI Emoji" font-size="20px" fill="#1e1e1e" text-anchor="start" style="white-space: pre;" direction="ltr" dominant-baseline="text-before-edge">Podcast transcripts</text></g><g stroke-linecap="round" transform="translate(755.0137035702631 1822.0316378367968) rotate(0 120.68170588486907 72.70436483592425)"><path d="M32 0 C80.5 -1.47, 125.78 -0.34, 209.36 0 M32 0 C78.45 0.29, 123.16 0.11, 209.36 0 M209.36 0 C232.38 0.01, 241.91 12.05, 241.36 32 M209.36 0 C232.79 0.96, 240.82 12.62, 241.36 32 M241.36 32 C239.43 51.43, 239.61 68.09, 241.36 113.41 M241.36 32 C241.69 59.53, 242.28 88.28, 241.36 113.41 M241.36 113.41 C242.35 134.33, 232.38 143.87, 209.36 145.41 M241.36 113.41 C241.44 136.72, 230.94 147.62, 209.36 145.41 M209.36 145.41 C164.64 142.25, 117.49 145.2, 32 145.41 M209.36 145.41 C144.09 146.31, 80.17 146.95, 32 145.41 M32 145.41 C10.92 143.84, -0.03 133.26, 0 113.41 M32 145.41 C10.56 144.41, 1.75 134.45, 0 113.41 M0 113.41 C1.63 92.94, -0.74 70.76, 0 32 M0 113.41 C-0.25 95.68, -0.41 76.42, 0 32 M0 32 C-1.09 10.86, 9.66 0.08, 32 0 M0 32 C-0.53 9.55, 11.48 -1.06, 32 0" stroke="#1e1e1e" stroke-width="2" fill="none"></path></g><g transform="translate(815.6793841388027 1882.354080063003) rotate(0 40.14996337890625 12.5)"><text x="0" y="0" font-family="Virgil, Segoe UI Emoji" font-size="20px" fill="#1e1e1e" text-anchor="start" style="white-space: pre;" direction="ltr" dominant-baseline="text-before-edge">Patents</text></g><g stroke-linecap="round" transform="translate(763.3508424903977 2007.024453482398) rotate(0 120.68170588486907 72.70436483592425)"><path d="M32 0 C75.8 1.71, 116.32 0.77, 209.36 0 M32 0 C73.9 0.04, 115.23 0.76, 209.36 0 M209.36 0 C229.18 0.47, 240.66 11.16, 241.36 32 M209.36 0 C232.51 0.34, 242.18 10.19, 241.36 32 M241.36 32 C242.31 65.87, 241.63 96.96, 241.36 113.41 M241.36 32 C240.78 51.36, 240.69 71.03, 241.36 113.41 M241.36 113.41 C242.77 136.04, 230.25 145.96, 209.36 145.41 M241.36 113.41 C242.99 135.39, 232.87 145.12, 209.36 145.41 M209.36 145.41 C147.89 142.5, 87.34 144.42, 32 145.41 M209.36 145.41 C164.38 143.75, 121.21 144.13, 32 145.41 M32 145.41 C10.09 144.95, -0.97 135.33, 0 113.41 M32 145.41 C12.79 147.19, -2.29 133.39, 0 113.41 M0 113.41 C-0.53 89.01, 2.18 66.1, 0 32 M0 113.41 C-0.87 82, -1.02 51.39, 0 32 M0 32 C-0.39 10.9, 10.13 1.47, 32 0 M0 32 C2.12 8.76, 12.75 -1.63, 32 0" stroke="#1e1e1e" stroke-width="2" fill="none"></path></g><g transform="translate(824.016523058937 2067.3468957086043) rotate(0 60.50994873046875 12.5)"><text x="0" y="0" font-family="Virgil, Segoe UI Emoji" font-size="20px" fill="#1e1e1e" text-anchor="start" style="white-space: pre;" direction="ltr" dominant-baseline="text-before-edge">Google News</text></g><g stroke-linecap="round" transform="translate(421.97818699355355 2134.868252198412) rotate(0 120.68170588486907 72.70436483592425)"><path d="M32 0 C98.7 -0.43, 164.98 -1.61, 209.36 0 M32 0 C101.26 -0.73, 169.86 -0.56, 209.36 0 M209.36 0 C230.27 1.12, 241.01 9.55, 241.36 32 M209.36 0 C231.65 -1.32, 240.9 9.91, 241.36 32 M241.36 32 C241.28 50.1, 239.85 68.03, 241.36 113.41 M241.36 32 C240.56 58.16, 241.28 84.48, 241.36 113.41 M241.36 113.41 C241.45 135.53, 232.24 143.45, 209.36 145.41 M241.36 113.41 C241.51 135.45, 229.05 147.5, 209.36 145.41 M209.36 145.41 C168.72 148.93, 129.4 147.1, 32 145.41 M209.36 145.41 C168.41 146.81, 126.73 146.4, 32 145.41 M32 145.41 C8.78 146.17, -1.42 133.29, 0 113.41 M32 145.41 C11.85 145.81, 0.11 134.51, 0 113.41 M0 113.41 C0.88 86, 0.44 59.93, 0 32 M0 113.41 C-0.65 89.74, -0.28 64.92, 0 32 M0 32 C-0.71 8.85, 10.92 -0.85, 32 0 M0 32 C1.66 9.34, 11.92 -1.68, 32 0" stroke="#1e1e1e" stroke-width="2" fill="none"></path></g><g transform="translate(482.64386756209285 2195.190694424618) rotate(0 58.699951171875 12.5)"><text x="0" y="0" font-family="Virgil, Segoe UI Emoji" font-size="20px" fill="#1e1e1e" text-anchor="start" style="white-space: pre;" direction="ltr" dominant-baseline="text-before-edge">Crunchbase </text></g><g stroke-linecap="round" transform="translate(772.032375172262 2240.473074259128) rotate(0 120.68170588486907 72.70436483592425)"><path d="M32 0 C77.05 2.76, 123.32 0.69, 209.36 0 M32 0 C94.61 0.29, 158.36 -0.29, 209.36 0 M209.36 0 C230.54 -1.21, 242.41 12.24, 241.36 32 M209.36 0 C229.31 -1.21, 240.6 8.57, 241.36 32 M241.36 32 C243.02 61.92, 241.01 91.43, 241.36 113.41 M241.36 32 C241.57 55.9, 241.87 78.1, 241.36 113.41 M241.36 113.41 C239.81 135.97, 231.85 146.93, 209.36 145.41 M241.36 113.41 C241.54 132.76, 230.93 143.71, 209.36 145.41 M209.36 145.41 C172.79 148.26, 134.47 146.95, 32 145.41 M209.36 145.41 C144.46 144.82, 79.59 145.48, 32 145.41 M32 145.41 C10.89 146.39, 1.01 135.19, 0 113.41 M32 145.41 C10.6 143.41, 1.81 135.77, 0 113.41 M0 113.41 C0.68 87.63, -0.26 58.59, 0 32 M0 113.41 C-0.15 92.51, -0.44 71.1, 0 32 M0 32 C-1.19 11.96, 10.06 -1.48, 32 0 M0 32 C-1.76 8.97, 10.35 1.1, 32 0" stroke="#1e1e1e" stroke-width="2" fill="none"></path></g><g transform="translate(799.0981060281509 2300.795516485334) rotate(0 95.37991333007812 12.5)"><text x="0" y="0" font-family="Virgil, Segoe UI Emoji" font-size="20px" fill="#1e1e1e" text-anchor="start" style="white-space: pre;" direction="ltr" dominant-baseline="text-before-edge">Apple App comments</text></g><g stroke-linecap="round" transform="translate(388.70360425028105 2356.931208798357) rotate(0 120.68170588486907 72.70436483592425)"><path d="M32 0 C84.91 0.24, 142.47 0.31, 209.36 0 M32 0 C99.27 0.4, 167.4 0.28, 209.36 0 M209.36 0 C230.72 -1.87, 241.65 10.37, 241.36 32 M209.36 0 C231.53 0.01, 243.14 9.11, 241.36 32 M241.36 32 C240.55 57.92, 241.5 79.54, 241.36 113.41 M241.36 32 C241.77 51.18, 241.57 69.41, 241.36 113.41 M241.36 113.41 C242.84 135.39, 232.45 145.69, 209.36 145.41 M241.36 113.41 C239.47 135.74, 231.79 147.55, 209.36 145.41 M209.36 145.41 C171.45 145.92, 135.51 146.29, 32 145.41 M209.36 145.41 C156.22 145.33, 101.95 145.5, 32 145.41 M32 145.41 C11.48 146.58, 1.74 132.79, 0 113.41 M32 145.41 C10.15 146.35, 0.76 132.96, 0 113.41 M0 113.41 C0.4 96.28, -0.56 78.7, 0 32 M0 113.41 C-0.52 89.49, 1.05 67.6, 0 32 M0 32 C1.45 12.35, 10.87 -0.51, 32 0 M0 32 C-0.86 9.96, 9.57 -0.51, 32 0" stroke="#1e1e1e" stroke-width="2" fill="none"></path></g><g transform="translate(415.76933510616993 2417.2536510245636) rotate(0 95.37991333007812 12.5)"><text x="0" y="0" font-family="Virgil, Segoe UI Emoji" font-size="20px" fill="#1e1e1e" text-anchor="start" style="white-space: pre;" direction="ltr" dominant-baseline="text-before-edge">Apple App comments</text></g><g stroke-linecap="round" transform="translate(1104.9525063385877 1587.7288324439098) rotate(0 120.68170588486902 72.70436483592428)"><path d="M32 0 C85.11 0.47, 138.83 1.29, 209.36 0 M32 0 C73.34 -2.57, 115.01 -2.1, 209.36 0 M209.36 0 C229.1 -1.36, 240.54 12.37, 241.36 32 M209.36 0 C232.4 0.64, 242.61 9.73, 241.36 32 M241.36 32 C241.9 60.79, 242.49 93.82, 241.36 113.41 M241.36 32 C241.4 63.6, 240.2 96.19, 241.36 113.41 M241.36 113.41 C240.87 134.84, 232.16 146.12, 209.36 145.41 M241.36 113.41 C243.53 133.1, 232.44 144.17, 209.36 145.41 M209.36 145.41 C146.96 146.5, 89.28 147.61, 32 145.41 M209.36 145.41 C169.33 144.34, 130.81 143.86, 32 145.41 M32 145.41 C11.91 145.07, -0.64 136.1, 0 113.41 M32 145.41 C8.89 143.39, 1.82 135.37, 0 113.41 M0 113.41 C-1.19 82.33, -1.3 51.81, 0 32 M0 113.41 C-0.89 90.04, 0.48 68.28, 0 32 M0 32 C0.05 11.18, 11.58 1.23, 32 0 M0 32 C-0.82 8.55, 10.5 0.21, 32 0" stroke="#1e1e1e" stroke-width="2" fill="none"></path></g><g transform="translate(1165.618186907127 1648.0512746701158) rotate(0 51.22995758056646 12.5)"><text x="0" y="0" font-family="Virgil, Segoe UI Emoji" font-size="20px" fill="#1e1e1e" text-anchor="start" style="white-space: pre;" direction="ltr" dominant-baseline="text-before-edge">GlassDoor</text></g><g stroke-linecap="round" transform="translate(1109.4030616697119 1845.1405862169095) rotate(0 120.68170588486902 72.70436483592425)"><path d="M32 0 C96.09 0.33, 161.37 0.66, 209.36 0 M32 0 C97.89 2.25, 164.88 1.53, 209.36 0 M209.36 0 C228.75 -0.2, 241.6 8.93, 241.36 32 M209.36 0 C231.19 -1.79, 239.28 10.76, 241.36 32 M241.36 32 C242.43 63.04, 239.85 92.26, 241.36 113.41 M241.36 32 C242.25 50.6, 242.58 70.49, 241.36 113.41 M241.36 113.41 C241.52 134.11, 230.78 145.81, 209.36 145.41 M241.36 113.41 C239.62 137.01, 229.91 145.01, 209.36 145.41 M209.36 145.41 C173.23 144.26, 138.78 144.73, 32 145.41 M209.36 145.41 C163.25 145.91, 118.92 146.56, 32 145.41 M32 145.41 C11.14 145.32, -1.17 134.94, 0 113.41 M32 145.41 C9.53 143.55, 1.25 136.08, 0 113.41 M0 113.41 C-1.15 83.18, -0.76 51.6, 0 32 M0 113.41 C-0.71 88.58, -0.91 63.11, 0 32 M0 32 C1.73 9.02, 10.43 -1.49, 32 0 M0 32 C0.49 9.4, 12.45 -1.57, 32 0" stroke="#1e1e1e" stroke-width="2" fill="none"></path></g><g transform="translate(1170.0687422382512 1905.4630284431155) rotate(0 70.97993469238287 12.5)"><text x="0" y="0" font-family="Virgil, Segoe UI Emoji" font-size="20px" fill="#1e1e1e" text-anchor="start" style="white-space: pre;" direction="ltr" dominant-baseline="text-before-edge">LinkedIn posts</text></g><g stroke-linecap="round" transform="translate(1095.888712191651 2041.110273897695) rotate(0 120.68170588486913 72.70436483592425)"><path d="M32 0 C93.46 -3.05, 158.1 0.05, 209.36 0 M32 0 C76.63 -0.31, 121.63 0.33, 209.36 0 M209.36 0 C230.27 -1.73, 242.7 9.35, 241.36 32 M209.36 0 C231.18 2.23, 243.56 10.61, 241.36 32 M241.36 32 C239.58 53.94, 242.09 71.33, 241.36 113.41 M241.36 32 C241.72 56.13, 240.24 79.23, 241.36 113.41 M241.36 113.41 C242.67 136.74, 229.29 144.32, 209.36 145.41 M241.36 113.41 C243.3 132.51, 230.6 146.91, 209.36 145.41 M209.36 145.41 C142.06 143.08, 69.7 142.15, 32 145.41 M209.36 145.41 C156.4 145.36, 102.9 146.7, 32 145.41 M32 145.41 C11.17 146.83, -0.82 133.29, 0 113.41 M32 145.41 C12.56 144.5, 1.38 133.03, 0 113.41 M0 113.41 C1.47 91.38, -1.19 68.59, 0 32 M0 113.41 C0.22 89.84, -0.08 65.53, 0 32 M0 32 C1.14 10.97, 11.16 -1.58, 32 0 M0 32 C1.94 12.62, 10.3 -0.23, 32 0" stroke="#1e1e1e" stroke-width="2" fill="none"></path></g><g transform="translate(1180.0156753020688 2100.2416406110024) rotate(0 37.38996124267584 12.5)"><text x="0" y="0" font-family="Virgil, Segoe UI Emoji" font-size="20px" fill="#1e1e1e" text-anchor="start" style="white-space: pre;" direction="ltr" dominant-baseline="text-before-edge">Twitter</text></g><g stroke-linecap="round" transform="translate(1904.615154665028 1890.9777131942978) rotate(0 189.98870794380537 103.07737505953065)"><path d="M32 0 C139.9 -2.82, 247.96 -1.05, 347.98 0 M32 0 C103.92 0.6, 177.48 0.45, 347.98 0 M347.98 0 C368.09 0.38, 379.49 9.13, 379.98 32 M347.98 0 C367.87 1.57, 380.3 12.34, 379.98 32 M379.98 32 C377.16 89.51, 380.45 144.76, 379.98 174.15 M379.98 32 C381.2 69.79, 380.59 107.27, 379.98 174.15 M379.98 174.15 C379.13 196.37, 370.78 206.19, 347.98 206.15 M379.98 174.15 C380.81 194.05, 370.59 207.64, 347.98 206.15 M347.98 206.15 C243.3 206.54, 139.72 208.2, 32 206.15 M347.98 206.15 C276.68 206.45, 206.61 206.48, 32 206.15 M32 206.15 C11.64 204.54, -1.81 196.22, 0 174.15 M32 206.15 C12.4 204.73, 0.9 195.85, 0 174.15 M0 174.15 C-2.22 118.07, -0.19 65.78, 0 32 M0 174.15 C0.11 120.11, -0.11 64.65, 0 32 M0 32 C0.31 11.44, 12.4 0.47, 32 0 M0 32 C1.77 10.58, 9.09 0.28, 32 0" stroke="#2f9e44" stroke-width="2" fill="none"></path></g><g transform="translate(2024.239652840008 1976.3594711002725) rotate(0 54.176161101073944 27.328582946321376)"><text x="0" y="0" font-family="Virgil, Segoe UI Emoji" font-size="43.72573271411419px" fill="#2f9e44" text-anchor="start" style="white-space: pre;" direction="ltr" dominant-baseline="text-before-edge">Text</text></g><g stroke-linecap="round" transform="translate(10 1326.341237244711) rotate(0 747.996115889687 662.7696182235187)"><path d="M757.67 -0.09 C792.2 -10.36, 830.67 4.38, 866.55 9.36 C902.43 14.34, 938.19 20.26, 972.95 29.79 C1007.71 39.31, 1042.55 52.15, 1075.12 66.48 C1107.69 80.82, 1138.26 97.53, 1168.37 115.8 C1198.47 134.06, 1228.86 154.45, 1255.74 176.07 C1282.62 197.7, 1306.86 220.67, 1329.65 245.55 C1352.45 270.42, 1374.06 297.69, 1392.5 325.31 C1410.94 352.92, 1426.83 381.29, 1440.3 411.23 C1453.77 441.16, 1464.75 473.51, 1473.31 504.9 C1481.87 536.3, 1487.89 567.88, 1491.66 599.6 C1495.42 631.31, 1497.74 663.11, 1495.92 695.2 C1494.11 727.29, 1487.84 760.62, 1480.77 792.16 C1473.71 823.7, 1465.69 854.22, 1453.52 884.44 C1441.35 914.66, 1425.03 945.03, 1407.75 973.49 C1390.47 1001.94, 1371.37 1029.13, 1349.86 1055.15 C1328.34 1081.18, 1303.98 1106.76, 1278.66 1129.66 C1253.34 1152.55, 1226.72 1173.38, 1197.95 1192.52 C1169.18 1211.66, 1137.97 1229.17, 1106.04 1244.51 C1074.11 1259.85, 1040.54 1273.37, 1006.36 1284.58 C972.17 1295.8, 936.5 1305.19, 900.95 1311.8 C865.4 1318.41, 829.44 1322.39, 793.07 1324.26 C756.69 1326.13, 719.03 1325.89, 682.7 1323.01 C646.38 1320.13, 610.5 1314.33, 575.13 1306.97 C539.75 1299.61, 504.27 1290.67, 470.43 1278.83 C436.6 1267, 403.42 1252.05, 372.1 1235.96 C340.78 1219.86, 310.94 1202.07, 282.51 1182.27 C254.07 1162.46, 226.26 1140.63, 201.51 1117.13 C176.76 1093.63, 154.51 1067.86, 133.99 1041.27 C113.47 1014.68, 94.68 986.29, 78.4 957.59 C62.12 928.89, 47.55 899.74, 36.33 869.09 C25.11 838.45, 17.26 805.53, 11.08 773.72 C4.9 741.92, 0.21 710.35, -0.76 678.25 C-1.74 646.14, 0.62 613.09, 5.25 581.1 C9.88 549.1, 17.14 517.09, 27.02 486.26 C36.9 455.43, 49.79 425.61, 64.51 396.12 C79.23 366.63, 96.19 336.74, 115.32 309.33 C134.46 281.92, 155.84 255.9, 179.33 231.67 C202.83 207.44, 228.77 185.08, 256.29 163.92 C283.81 142.77, 313.8 122.31, 344.46 104.74 C375.12 87.17, 407.18 71.59, 440.23 58.52 C473.28 45.44, 507.87 35.1, 542.77 26.27 C577.66 17.44, 610.54 9.96, 649.62 5.54 C688.7 1.11, 752.63 -1.67, 777.24 -0.28 C801.85 1.11, 797.47 2.66, 797.27 13.88 M1046.78 56.74 C1083.26 59.07, 1112.56 83.48, 1143.25 100.12 C1173.94 116.77, 1203.04 135.96, 1230.91 156.62 C1258.77 177.27, 1286.4 199.78, 1310.45 224.05 C1334.5 248.32, 1355.44 274.93, 1375.21 302.24 C1394.97 329.55, 1413.79 358.76, 1429.04 387.92 C1444.29 417.07, 1456.75 446.43, 1466.71 477.16 C1476.66 507.89, 1483.73 540.26, 1488.78 572.3 C1493.83 604.34, 1497.11 637.26, 1497.01 669.4 C1496.91 701.53, 1494.1 733.48, 1488.17 765.11 C1482.25 796.75, 1472.6 828.48, 1461.46 859.2 C1450.32 889.91, 1437.1 920.28, 1421.34 949.4 C1405.57 978.52, 1386.99 1007.27, 1366.86 1033.92 C1346.72 1060.56, 1324.9 1085.63, 1300.54 1109.29 C1276.18 1132.95, 1249.08 1155.3, 1220.69 1175.87 C1192.31 1196.45, 1161.18 1216.37, 1130.23 1232.74 C1099.28 1249.12, 1068.6 1262.03, 1035 1274.11 C1001.39 1286.2, 964.32 1297.46, 928.61 1305.27 C892.91 1313.07, 856.69 1317.78, 820.76 1320.94 C784.82 1324.11, 748.77 1325.4, 713 1324.26 C677.22 1323.12, 641.62 1319.98, 606.09 1314.11 C570.56 1308.24, 534.12 1299.79, 499.81 1289.05 C465.5 1278.31, 432.27 1265.1, 400.23 1249.68 C368.18 1234.26, 337.01 1215.57, 307.55 1196.52 C278.08 1177.48, 249.55 1157.61, 223.42 1135.42 C197.28 1113.23, 172.64 1089.29, 150.74 1063.37 C128.83 1037.45, 109.43 1008.15, 91.99 979.91 C74.54 951.67, 58.79 924.07, 46.05 893.94 C33.31 863.81, 23.12 830.67, 15.56 799.14 C8 767.61, 2.69 736.61, 0.7 704.75 C-1.29 672.89, 0.53 639.97, 3.6 607.97 C6.68 575.98, 11.2 544.06, 19.16 512.78 C27.13 481.5, 38.21 450.33, 51.41 420.3 C64.61 390.28, 80.37 360.65, 98.38 332.63 C116.39 304.61, 136.64 277.69, 159.47 252.19 C182.3 226.68, 208.54 201.79, 235.36 179.59 C262.17 157.39, 291.02 137.27, 320.34 118.99 C349.66 100.71, 378.84 84.3, 411.27 69.92 C443.7 55.53, 479.99 42.8, 514.93 32.68 C549.87 22.55, 585.56 14.74, 620.93 9.18 C656.3 3.63, 691.2 0.06, 727.13 -0.64 C763.06 -1.33, 800.44 1.04, 836.54 5.02 C872.64 8.99, 908.69 14.68, 943.72 23.2 C978.74 31.72, 1030.19 48.57, 1046.7 56.14 C1063.21 63.72, 1047.62 58.78, 1042.8 68.66" stroke="#1971c2" stroke-width="2" fill="none"></path></g><g stroke-linecap="round"><g transform="translate(1627.4341122815129 1998.6032580279684) rotate(0 94.6586855066613 1.2463123417019233)"><path d="M-1.11 0.64 C30.29 1.34, 157.55 2.88, 189.34 3.12 M0.51 -0.08 C31.68 0.37, 156.98 0.78, 188.41 1.33" stroke="#1971c2" stroke-width="2" fill="none"></path></g><g transform="translate(1627.4341122815129 1998.6032580279684) rotate(0 94.6586855066613 1.2463123417019233)"><path d="M164.83 9.66 C174.87 6.77, 183.77 4.17, 188.41 1.33 M164.83 9.66 C170.36 6.61, 178.04 5.5, 188.41 1.33" stroke="#1971c2" stroke-width="2" fill="none"></path></g><g transform="translate(1627.4341122815129 1998.6032580279684) rotate(0 94.6586855066613 1.2463123417019233)"><path d="M165 -7.44 C174.82 -3.87, 183.66 -0.01, 188.41 1.33 M165 -7.44 C170.44 -5.87, 178.08 -2.37, 188.41 1.33" stroke="#1971c2" stroke-width="2" fill="none"></path></g></g><mask></mask><g transform="translate(1558.0019431168637 1858.7355309141385) rotate(0 116.57795715332031 17.5)"><text x="0" y="0" font-family="Virgil, Segoe UI Emoji" font-size="28px" fill="#1971c2" text-anchor="start" style="white-space: pre;" direction="ltr" dominant-baseline="text-before-edge">Convert to Text</text></g><g stroke-linecap="round" transform="translate(2642.1361027597004 1903.3772775107586) rotate(0 233.5080789927465 105.96396528843036)"><path d="M32 0 C184.73 0.47, 338.56 1.64, 435.02 0 M32 0 C113.78 1.62, 196.12 1.29, 435.02 0 M435.02 0 C455.7 -0.36, 466.26 9.09, 467.02 32 M435.02 0 C457.76 -1.19, 466.01 11.48, 467.02 32 M467.02 32 C466.69 77.54, 464.97 120.62, 467.02 179.93 M467.02 32 C466.55 73.84, 467.19 117.09, 467.02 179.93 M467.02 179.93 C465.58 200.55, 457.61 212.82, 435.02 211.93 M467.02 179.93 C465.77 200.8, 456.55 211.13, 435.02 211.93 M435.02 211.93 C297.22 211.34, 159.46 212.44, 32 211.93 M435.02 211.93 C298.27 211.61, 161.95 210.78, 32 211.93 M32 211.93 C10.87 213.26, 1.75 200.75, 0 179.93 M32 211.93 C9.11 211.54, 1.91 201.15, 0 179.93 M0 179.93 C0.54 128.92, -1.08 83.65, 0 32 M0 179.93 C-2.11 147.21, -1.27 114.6, 0 32 M0 32 C0.98 12.45, 11.01 -1.67, 32 0 M0 32 C1.61 10.61, 8.79 -1.69, 32 0" stroke="#1971c2" stroke-width="2" fill="none"></path></g><g transform="translate(2813.3504367259216 1986.540146759934) rotate(0 44.84197235107422 17.5)"><text x="0" y="0" font-family="Virgil, Segoe UI Emoji" font-size="28px" fill="#1971c2" text-anchor="start" style="white-space: pre;" direction="ltr" dominant-baseline="text-before-edge">Chunks</text></g><g stroke-linecap="round"><g transform="translate(2381.848531673639 2009.3591292543783) rotate(0 95.46661968458261 -0.15813398627392417)"><path d="M0.77 -1.06 C32.72 -1.13, 159.67 -0.64, 191.5 -0.53 M-0.29 1 C31.57 1.12, 158.91 0.92, 190.85 0.9" stroke="#1971c2" stroke-width="2" fill="none"></path></g><g transform="translate(2381.848531673639 2009.3591292543783) rotate(0 95.46661968458261 -0.15813398627392417)"><path d="M167.37 9.48 C172.24 7.86, 180.29 5.82, 190.85 0.9 M167.37 9.48 C174.87 6.08, 181.25 4.76, 190.85 0.9" stroke="#1971c2" stroke-width="2" fill="none"></path></g><g transform="translate(2381.848531673639 2009.3591292543783) rotate(0 95.46661968458261 -0.15813398627392417)"><path d="M167.35 -7.62 C172.21 -4.42, 180.26 -1.62, 190.85 0.9 M167.35 -7.62 C175.01 -6.01, 181.4 -2.31, 190.85 0.9" stroke="#1971c2" stroke-width="2" fill="none"></path></g></g><mask></mask><g transform="translate(2361.028109677207 1898.8377591285434) rotate(0 114.18392944335938 17.5)"><text x="0" y="0" font-family="Virgil, Segoe UI Emoji" font-size="28px" fill="#1971c2" text-anchor="start" style="white-space: pre;" direction="ltr" dominant-baseline="text-before-edge">Split into Chunks</text></g><g stroke-linecap="round" transform="translate(3363.5389690845886 1899.3437358685987) rotate(0 233.5080789927465 105.96396528843036)"><path d="M32 0 C155.6 -1.65, 281.97 -2.2, 435.02 0 M32 0 C171.81 1.29, 311.49 0.71, 435.02 0 M435.02 0 C454.44 -0.55, 465.05 10.55, 467.02 32 M435.02 0 C457.72 -1.11, 465.87 9.95, 467.02 32 M467.02 32 C468.95 73.14, 465.56 116.91, 467.02 179.93 M467.02 32 C467.24 68.67, 466.63 105.37, 467.02 179.93 M467.02 179.93 C466.43 202.62, 455 210.92, 435.02 211.93 M467.02 179.93 C466.19 201.27, 454.72 212.22, 435.02 211.93 M435.02 211.93 C321.11 213.57, 207.5 211.95, 32 211.93 M435.02 211.93 C329.54 211.37, 224.97 211.28, 32 211.93 M32 211.93 C9.73 211.48, -1.89 200.37, 0 179.93 M32 211.93 C12.31 212.41, 2.08 199, 0 179.93 M0 179.93 C0.96 128.4, -0.71 75.35, 0 32 M0 179.93 C0.24 130.54, -0.18 82.68, 0 32 M0 32 C-0.53 11.22, 12 -0.26, 32 0 M0 32 C-0.47 12.06, 8.66 1.72, 32 0" stroke="#1971c2" stroke-width="2" fill="none"></path></g><g transform="translate(3478.075544532647 1988.35168619418) rotate(0 73.219970703125 17.5)"><text x="0" y="0" font-family="Virgil, Segoe UI Emoji" font-size="28px" fill="#1971c2" text-anchor="start" style="white-space: pre;" direction="ltr" dominant-baseline="text-before-edge">Embeddings</text></g><g stroke-linecap="round"><g transform="translate(3139.811930878541 2005.9430961846965) rotate(0 95.46661968458284 -0.15813398627392417)"><path d="M0.39 -0.06 C32.23 0, 158.12 -0.8, 190.01 -0.79 M-0.87 -1.13 C31.44 -0.81, 160.19 0.06, 192.23 0.49" stroke="#1971c2" stroke-width="2" fill="none"></path></g><g transform="translate(3139.811930878541 2005.9430961846965) rotate(0 95.46661968458284 -0.15813398627392417)"><path d="M168.66 8.82 C173.58 5.45, 177.83 6.55, 192.23 0.49 M168.66 8.82 C175.36 6.85, 184.13 3.91, 192.23 0.49" stroke="#1971c2" stroke-width="2" fill="none"></path></g><g transform="translate(3139.811930878541 2005.9430961846965) rotate(0 95.46661968458284 -0.15813398627392417)"><path d="M168.82 -8.28 C173.55 -8.06, 177.76 -3.38, 192.23 0.49 M168.82 -8.28 C175.57 -4.7, 184.28 -2.09, 192.23 0.49" stroke="#1971c2" stroke-width="2" fill="none"></path></g></g><mask></mask><g stroke-linecap="round"><g transform="translate(3791.3438996465966 1719.0070510799196) rotate(0 86.08914623996884 -137.84655889131972)"><path d="M-0.26 0.34 C28.47 -45.36, 143.33 -229.02, 171.88 -275.16 M1.81 -0.53 C30.39 -46.51, 142.19 -231.16, 170.77 -277.01" stroke="#1971c2" stroke-width="2" fill="none"></path></g><g transform="translate(3791.3438996465966 1719.0070510799196) rotate(0 86.08914623996884 -137.84655889131972)"><path d="M165.78 -252.51 C167.84 -259.39, 169.46 -267.17, 170.77 -277.01 M165.78 -252.51 C166.11 -258.04, 168.96 -263.31, 170.77 -277.01" stroke="#1971c2" stroke-width="2" fill="none"></path></g><g transform="translate(3791.3438996465966 1719.0070510799196) rotate(0 86.08914623996884 -137.84655889131972)"><path d="M151.2 -261.45 C156.99 -265.96, 162.42 -271.42, 170.77 -277.01 M151.2 -261.45 C154.87 -264.86, 161.1 -268.06, 170.77 -277.01" stroke="#1971c2" stroke-width="2" fill="none"></path></g></g><mask></mask><g stroke-linecap="round" transform="translate(3798.420538149049 1142.7387511594247) rotate(0 265.4617248510963 112.79511636381858)"><path d="M32 0 C185.86 -1.91, 339.88 -1.02, 498.92 0 M32 0 C197 -1.3, 361.53 -0.96, 498.92 0 M498.92 0 C518.74 1.84, 530.53 9.83, 530.92 32 M498.92 0 C520.36 1.49, 533.05 12.2, 530.92 32 M530.92 32 C533.03 74.18, 533.65 117.75, 530.92 193.59 M530.92 32 C530.79 79.59, 531.98 126.18, 530.92 193.59 M530.92 193.59 C529.95 213.76, 521.76 227.13, 498.92 225.59 M530.92 193.59 C530.17 215.23, 522.06 225.84, 498.92 225.59 M498.92 225.59 C387.4 226.7, 276.25 226.47, 32 225.59 M498.92 225.59 C405.05 226.97, 310.92 227.11, 32 225.59 M32 225.59 C10.37 225.16, 0.99 214.48, 0 193.59 M32 225.59 C10.78 224.14, -1.36 214.62, 0 193.59 M0 193.59 C0.51 149.81, -1.96 104.48, 0 32 M0 193.59 C-1.64 158.1, -0.35 123.16, 0 32 M0 32 C1.59 11.94, 11.55 0.2, 32 0 M0 32 C-0.63 12.8, 10.18 1.91, 32 0" stroke="#1971c2" stroke-width="2" fill="none"></path></g><g transform="translate(3977.2618816402282 1254.6633109266613) rotate(0 88.54996490478516 17.5)"><text x="0" y="0" font-family="Virgil, Segoe UI Emoji" font-size="28px" fill="#1971c2" text-anchor="start" style="white-space: pre;" direction="ltr" dominant-baseline="text-before-edge">vector Store</text></g><g stroke-linecap="round" transform="translate(1954.5973254230084 26.883453252539766) rotate(0 255.78125 140.13671875)"><path d="M32 0 C145.3 -0.38, 258.36 0.35, 479.56 0 M32 0 C168.83 -0.44, 305.79 0.08, 479.56 0 M479.56 0 C501.75 1.79, 510.73 12.2, 511.56 32 M479.56 0 C501.83 -2.2, 512.92 10.13, 511.56 32 M511.56 32 C513.97 89.67, 512.82 149.15, 511.56 248.27 M511.56 32 C509.93 110.57, 509.51 189.99, 511.56 248.27 M511.56 248.27 C512.11 269.44, 502.37 280.54, 479.56 280.27 M511.56 248.27 C511.51 271.41, 499.81 281.89, 479.56 280.27 M479.56 280.27 C355.08 281.23, 227.79 279.55, 32 280.27 M479.56 280.27 C339.47 279.76, 199.64 279.02, 32 280.27 M32 280.27 C9.73 282.11, 1.6 268.05, 0 248.27 M32 280.27 C11.87 282.48, -0.59 271, 0 248.27 M0 248.27 C-2.26 175.8, -2.43 103.7, 0 32 M0 248.27 C-1.56 166.62, -1.61 86.86, 0 32 M0 32 C-1.06 10.24, 9.53 0.05, 32 0 M0 32 C-1.54 10.57, 11.48 -1.06, 32 0" stroke="#1971c2" stroke-width="2" fill="none"></path></g><g transform="translate(2064.23591229091 163.03593067841416) rotate(0 153.43994140625 17.5)"><text x="0" y="0" font-family="Virgil, Segoe UI Emoji" font-size="28px" fill="#1971c2" text-anchor="start" style="white-space: pre;" direction="ltr" dominant-baseline="text-before-edge">Large Language Model</text></g><g stroke-linecap="round" transform="translate(857.8865522515794 10) rotate(0 255.78125 140.13671875)"><path d="M32 0 C194.13 0.28, 358.12 -0.95, 479.56 0 M32 0 C179.32 -0.94, 326.16 -0.19, 479.56 0 M479.56 0 C501.06 -0.13, 509.76 9.09, 511.56 32 M479.56 0 C500.35 -0.65, 513.37 12.61, 511.56 32 M511.56 32 C511.42 85.05, 508.69 135.81, 511.56 248.27 M511.56 32 C511.1 106.65, 509.62 178.73, 511.56 248.27 M511.56 248.27 C511.83 269.74, 502.51 279.17, 479.56 280.27 M511.56 248.27 C510.33 271.58, 500.41 278.72, 479.56 280.27 M479.56 280.27 C319.79 281.79, 159.04 280.73, 32 280.27 M479.56 280.27 C302.7 278.96, 126.57 279.58, 32 280.27 M32 280.27 C11.38 279.21, 0.21 269.72, 0 248.27 M32 280.27 C8.84 281.75, -1.89 270.84, 0 248.27 M0 248.27 C2 178.95, 2.12 112.55, 0 32 M0 248.27 C-2.48 163.46, -1.78 77.96, 0 32 M0 32 C1.19 12.13, 9.96 -0.88, 32 0 M0 32 C1.7 10.07, 8.51 1.2, 32 0" stroke="#1971c2" stroke-width="2" fill="none"></path></g><g transform="translate(967.5251391194811 146.1524774258744) rotate(0 138.06793212890625 17.5)"><text x="0" y="0" font-family="Virgil, Segoe UI Emoji" font-size="28px" fill="#1971c2" text-anchor="start" style="white-space: pre;" direction="ltr" dominant-baseline="text-before-edge">framework Template</text></g><g stroke-linecap="round" transform="translate(5751.867938997269 17.621282582157164) rotate(0 218.78935277307482 192.80089572026304)"><path d="M255.34 3.56 C274.08 3.37, 293.79 11.91, 311.69 19.3 C329.59 26.69, 347.66 36.5, 362.76 47.88 C377.85 59.26, 391.43 73.12, 402.28 87.58 C413.13 102.04, 422.11 118.34, 427.86 134.64 C433.61 150.94, 436.3 168.26, 436.77 185.37 C437.24 202.48, 435.26 220.3, 430.7 237.32 C426.14 254.34, 418.97 272.12, 409.39 287.48 C399.81 302.83, 387 317.09, 373.21 329.46 C359.41 341.82, 343.72 353.17, 326.61 361.67 C309.5 370.18, 289.68 376.38, 270.54 380.48 C251.4 384.58, 231.33 386.94, 211.77 386.26 C192.21 385.58, 171.98 381.9, 153.19 376.41 C134.41 370.92, 115.71 362.86, 99.06 353.32 C82.41 343.78, 66.35 332.1, 53.3 319.18 C40.25 306.26, 29.05 291.44, 20.77 275.81 C12.48 260.17, 6.96 242.32, 3.62 225.34 C0.28 208.36, -1.03 191.1, 0.72 173.92 C2.48 156.75, 6.81 138.37, 14.15 122.29 C21.49 106.21, 32.63 91.29, 44.75 77.45 C56.86 63.61, 71.3 49.82, 86.83 39.26 C102.35 28.7, 119.79 20.37, 137.9 14.09 C156.02 7.81, 173.4 3.06, 195.52 1.55 C217.64 0.05, 255.61 3.15, 270.62 5.06 C285.63 6.98, 286.36 9.96, 285.57 13.06 M227.81 -0.05 C246.37 -2.61, 266.75 3.26, 285.39 8.48 C304.03 13.71, 323.07 21.6, 339.64 31.3 C356.22 40.99, 371.82 53.29, 384.83 66.67 C397.84 80.04, 409.66 95.8, 417.72 111.54 C425.78 127.29, 430.1 144.22, 433.18 161.12 C436.27 178.03, 438.01 195.87, 436.23 212.97 C434.45 230.07, 429.68 247.51, 422.48 263.72 C415.27 279.93, 405.14 296.47, 392.99 310.22 C380.85 323.97, 365.51 335.83, 349.6 346.21 C333.7 356.58, 315.72 366.1, 297.58 372.47 C279.43 378.85, 260.16 382.82, 240.75 384.44 C221.34 386.06, 200.76 385.1, 181.1 382.18 C161.44 379.26, 140.53 374.13, 122.8 366.9 C105.07 359.68, 89.1 350.56, 74.72 338.81 C60.34 327.06, 47.27 311.34, 36.52 296.41 C25.76 281.49, 16.06 265.47, 10.17 249.25 C4.29 233.02, 1.84 216.2, 1.19 199.06 C0.53 181.92, 1.52 163.13, 6.26 146.43 C10.99 129.74, 19.84 113.88, 29.61 98.88 C39.38 83.89, 51.21 69.14, 64.88 56.48 C78.54 43.83, 94.2 31.31, 111.6 22.96 C129 14.61, 150.05 10.15, 169.27 6.38 C188.5 2.61, 217.06 0.83, 226.95 0.34 C236.84 -0.14, 228.8 0.08, 228.61 3.46" stroke="#1971c2" stroke-width="2" fill="none"></path></g><g transform="translate(5916.076358411254 186.98600502121826) rotate(0 45.527976989746094 17.5)"><text x="0" y="0" font-family="Virgil, Segoe UI Emoji" font-size="28px" fill="#1971c2" text-anchor="start" style="white-space: pre;" direction="ltr" dominant-baseline="text-before-edge">Answer</text></g><g stroke-linecap="round" transform="translate(4916.851520367292 32.12938031392946) rotate(0 255.78125 140.13671875)"><path d="M32 0 C194.11 -1.29, 356.6 -1.99, 479.56 0 M32 0 C159.31 1.35, 287.04 1.46, 479.56 0 M479.56 0 C502.1 -0.18, 509.74 12.62, 511.56 32 M479.56 0 C501.18 -1.06, 512.49 12.28, 511.56 32 M511.56 32 C513.55 77.84, 513.79 121.88, 511.56 248.27 M511.56 32 C511.06 76.43, 511.81 121.14, 511.56 248.27 M511.56 248.27 C509.91 268.61, 500.13 280.99, 479.56 280.27 M511.56 248.27 C510.19 270.28, 499.74 278.54, 479.56 280.27 M479.56 280.27 C307.77 279.14, 137.63 279.1, 32 280.27 M479.56 280.27 C310.19 278.74, 141.1 278.9, 32 280.27 M32 280.27 C10.57 281.53, 0.62 271.46, 0 248.27 M32 280.27 C12.8 279.03, 2.04 271.12, 0 248.27 M0 248.27 C0.15 187.77, -0.12 129.46, 0 32 M0 248.27 C1.48 191.16, 0.5 135.86, 0 32 M0 32 C-0.46 9.2, 10.31 0.13, 32 0 M0 32 C1.08 8.45, 10.08 -0.52, 32 0" stroke="#1971c2" stroke-width="2" fill="none"></path></g><g transform="translate(5010.903779540833 159.7532864744303) rotate(0 153.43994140625 17.5)"><text x="0" y="0" font-family="Virgil, Segoe UI Emoji" font-size="28px" fill="#1971c2" text-anchor="start" style="white-space: pre;" direction="ltr" dominant-baseline="text-before-edge">Large Language Model</text></g><g stroke-linecap="round" transform="translate(3061.7674346428394 691.3807751993961) rotate(0 255.78125 140.13671875)"><path d="M32 0 C138.19 -2.05, 245.53 -1.44, 479.56 0 M32 0 C165.18 -2.25, 298.14 -1.83, 479.56 0 M479.56 0 C502.59 0.71, 510.34 10.18, 511.56 32 M479.56 0 C502.86 1.35, 509.71 12.34, 511.56 32 M511.56 32 C512.07 80.39, 511.49 127.03, 511.56 248.27 M511.56 32 C509.46 92.6, 510.89 152.71, 511.56 248.27 M511.56 248.27 C510.8 270.19, 502.01 278.65, 479.56 280.27 M511.56 248.27 C513.59 271.37, 500.01 280.17, 479.56 280.27 M479.56 280.27 C338.7 280.95, 195.42 279.23, 32 280.27 M479.56 280.27 C361.03 279.93, 243.54 279.65, 32 280.27 M32 280.27 C12.59 280.08, -1.55 271.12, 0 248.27 M32 280.27 C11.58 278.41, 0.98 271.47, 0 248.27 M0 248.27 C-1.04 178.73, -0.22 110.5, 0 32 M0 248.27 C-1.83 188.48, -1.5 128.83, 0 32 M0 32 C-0.11 9.72, 11.87 1.77, 32 0 M0 32 C0.1 9.69, 10.6 1.25, 32 0" stroke="#1971c2" stroke-width="2" fill="none"></path></g><g transform="translate(3171.406021510741 827.5332526252703) rotate(0 120.6939468383789 17.5)"><text x="0" y="0" font-family="Virgil, Segoe UI Emoji" font-size="28px" fill="#1971c2" text-anchor="start" style="white-space: pre;" direction="ltr" dominant-baseline="text-before-edge">OpenAI Embedding</text></g><g stroke-linecap="round" transform="translate(4181.091568408809 616.1985700874629) rotate(0 255.78125000000023 140.13671875)"><path d="M32 0 C203.9 0.87, 376.07 0.6, 479.56 0 M32 0 C164.01 -0.51, 295.15 -0.73, 479.56 0 M479.56 0 C499.83 0.2, 513.33 10.98, 511.56 32 M479.56 0 C498.61 -0.2, 512.2 8.89, 511.56 32 M511.56 32 C509.82 77.74, 508.65 125.33, 511.56 248.27 M511.56 32 C512.4 106.9, 512.33 182.32, 511.56 248.27 M511.56 248.27 C510.81 269.73, 501.6 278.95, 479.56 280.27 M511.56 248.27 C509.9 271.5, 502.52 279.45, 479.56 280.27 M479.56 280.27 C304.19 277.45, 128.74 279, 32 280.27 M479.56 280.27 C319.16 278.38, 158.54 278.58, 32 280.27 M32 280.27 C8.72 279.5, -1.2 269.53, 0 248.27 M32 280.27 C9.22 280.65, -0.51 270.65, 0 248.27 M0 248.27 C-0.61 175.7, -2.78 102.07, 0 32 M0 248.27 C-1.48 172.28, -1.25 94.55, 0 32 M0 32 C-1.98 9.76, 9.75 -0.67, 32 0 M0 32 C-1.84 9.94, 8.42 -0.46, 32 0" stroke="#1971c2" stroke-width="2" fill="none"></path></g><g transform="translate(4275.107226326452 726.9679518628088) rotate(0 172.03192138671898 35)"><text x="0" y="0" font-family="Virgil, Segoe UI Emoji" font-size="28px" fill="#1971c2" text-anchor="start" style="white-space: pre;" direction="ltr" dominant-baseline="text-before-edge">Relevant Docs </text><text x="0" y="35" font-family="Virgil, Segoe UI Emoji" font-size="28px" fill="#1971c2" text-anchor="start" style="white-space: pre;" direction="ltr" dominant-baseline="text-before-edge">for standalone question </text></g><g stroke-linecap="round"><g transform="translate(1474.5259892446643 170.1069683094986) rotate(0 198.57297900087838 -1.1994896204228098)"><path d="M0.42 -0.7 C66.38 -1.04, 329.91 -1, 396.13 -1.33 M-0.82 1.55 C65.47 0.83, 331.96 -2.39, 398.3 -2.9" stroke="#1971c2" stroke-width="2" fill="none"></path></g><g transform="translate(1474.5259892446643 170.1069683094986) rotate(0 198.57297900087838 -1.1994896204228098)"><path d="M374.9 5.89 C381.36 1.23, 391.99 0.96, 398.3 -2.9 M374.9 5.89 C382.02 4.22, 388.74 1.41, 398.3 -2.9" stroke="#1971c2" stroke-width="2" fill="none"></path></g><g transform="translate(1474.5259892446643 170.1069683094986) rotate(0 198.57297900087838 -1.1994896204228098)"><path d="M374.72 -11.21 C381.35 -10.26, 392.04 -4.91, 398.3 -2.9 M374.72 -11.21 C381.99 -8.15, 388.75 -6.22, 398.3 -2.9" stroke="#1971c2" stroke-width="2" fill="none"></path></g></g><mask></mask><g stroke-linecap="round"><g transform="translate(3273.5857815433565 437.0922173855272) rotate(0 -2.8125963513361967 74.25346282441205)"><path d="M-1.18 0.51 C-2.09 25.55, -4.49 124.89, -5.04 149.44 M0.4 -0.27 C-0.65 24.52, -4.83 122.97, -5.69 147.8" stroke="#1971c2" stroke-width="2" fill="none"></path></g><g transform="translate(3273.5857815433565 437.0922173855272) rotate(0 -2.8125963513361967 74.25346282441205)"><path d="M-13.32 123.99 C-10.08 132.98, -6.84 141.79, -5.69 147.8 M-13.32 123.99 C-10.66 129, -10.25 135.66, -5.69 147.8" stroke="#1971c2" stroke-width="2" fill="none"></path></g><g transform="translate(3273.5857815433565 437.0922173855272) rotate(0 -2.8125963513361967 74.25346282441205)"><path d="M3.77 124.66 C1.31 133.26, -1.15 141.84, -5.69 147.8 M3.77 124.66 C2.35 129.46, -1.31 135.96, -5.69 147.8" stroke="#1971c2" stroke-width="2" fill="none"></path></g></g><mask></mask><g stroke-linecap="round"><g transform="translate(3575.8755488725965 1019.7500451880032) rotate(0 87.82929553984877 57.19405488950963)"><path d="M-0.66 -0.94 C28.56 18.21, 146.7 94.75, 176.09 114.02 M1.19 1.19 C30.22 20.59, 146.41 96.2, 175.37 115.36" stroke="#1971c2" stroke-width="2" fill="none"></path></g><g transform="translate(3575.8755488725965 1019.7500451880032) rotate(0 87.82929553984877 57.19405488950963)"><path d="M151.04 109.63 C158.29 112.57, 168.09 113.99, 175.37 115.36 M151.04 109.63 C158.37 110.9, 166.34 112.64, 175.37 115.36" stroke="#1971c2" stroke-width="2" fill="none"></path></g><g transform="translate(3575.8755488725965 1019.7500451880032) rotate(0 87.82929553984877 57.19405488950963)"><path d="M160.42 95.33 C164.15 103.42, 170.54 110.05, 175.37 115.36 M160.42 95.33 C164.61 101.26, 169.53 107.66, 175.37 115.36" stroke="#1971c2" stroke-width="2" fill="none"></path></g></g><mask></mask><g stroke-linecap="round"><g transform="translate(4249.547523965699 1089.9362730925907) rotate(0 40.94733038326149 -81.58320410341014)"><path d="M-0.87 -0.6 C12.45 -27.93, 67.06 -136, 80.94 -162.99 M0.87 1.7 C14.47 -25.5, 69.64 -133.65, 83.16 -161.36" stroke="#1971c2" stroke-width="2" fill="none"></path></g><g transform="translate(4249.547523965699 1089.9362730925907) rotate(0 40.94733038326149 -81.58320410341014)"><path d="M80.29 -136.53 C80.19 -147.68, 82.59 -154.79, 83.16 -161.36 M80.29 -136.53 C80.51 -144.54, 82.5 -153.77, 83.16 -161.36" stroke="#1971c2" stroke-width="2" fill="none"></path></g><g transform="translate(4249.547523965699 1089.9362730925907) rotate(0 40.94733038326149 -81.58320410341014)"><path d="M65 -144.18 C70.87 -152.27, 79.17 -156.42, 83.16 -161.36 M65 -144.18 C70.55 -149.46, 77.9 -156.01, 83.16 -161.36" stroke="#1971c2" stroke-width="2" fill="none"></path></g></g><mask></mask><g stroke-linecap="round" transform="translate(2965.8450309743903 36.01825086400572) rotate(0 255.78125 140.13671875)"><path d="M32 0 C177.86 -0.55, 322.73 -2.02, 479.56 0 M32 0 C134.91 -1.84, 237.49 -2.09, 479.56 0 M479.56 0 C500.39 0.27, 513.45 11.9, 511.56 32 M479.56 0 C502.86 -1.51, 513.49 12.01, 511.56 32 M511.56 32 C514.96 115.32, 512.6 197.24, 511.56 248.27 M511.56 32 C510.53 97.22, 511.14 163.05, 511.56 248.27 M511.56 248.27 C510.23 268.54, 501.71 278.73, 479.56 280.27 M511.56 248.27 C510.29 267.52, 499.07 279.26, 479.56 280.27 M479.56 280.27 C343.65 279.94, 208.36 280.11, 32 280.27 M479.56 280.27 C386.08 280.23, 293.95 280.06, 32 280.27 M32 280.27 C10.75 282.01, -0.09 271.29, 0 248.27 M32 280.27 C12.59 279.25, 1.18 270.99, 0 248.27 M0 248.27 C-0.7 175.98, -0.05 102.59, 0 32 M0 248.27 C-0.75 188.61, -1.27 128.05, 0 32 M0 32 C1.08 8.74, 10.09 0.4, 32 0 M0 32 C-0.38 10.25, 11.73 0.92, 32 0" stroke="#1971c2" stroke-width="2" fill="none"></path></g><g transform="translate(3075.483617842292 172.17072828988034) rotate(0 147.43392944335938 17.5)"><text x="0" y="0" font-family="Virgil, Segoe UI Emoji" font-size="28px" fill="#1971c2" text-anchor="start" style="white-space: pre;" direction="ltr" dominant-baseline="text-before-edge">Stand Alone Question</text></g><g stroke-linecap="round"><g transform="translate(2500.1122447691805 179.31112019472016) rotate(0 198.57297900087838 -1.1994896204228098)"><path d="M1.11 -0.85 C67.65 -1.25, 332.03 -2.08, 398.18 -2.23 M0.23 1.31 C66.79 1.13, 331.53 0.24, 397.78 -0.6" stroke="#1971c2" stroke-width="2" fill="none"></path></g><g transform="translate(2500.1122447691805 179.31112019472016) rotate(0 198.57297900087838 -1.1994896204228098)"><path d="M374.35 8.12 C377.94 7.76, 384.67 5.62, 397.78 -0.6 M374.35 8.12 C381.78 5.52, 391.86 1.2, 397.78 -0.6" stroke="#1971c2" stroke-width="2" fill="none"></path></g><g transform="translate(2500.1122447691805 179.31112019472016) rotate(0 198.57297900087838 -1.1994896204228098)"><path d="M374.22 -8.98 C377.86 -5.67, 384.62 -4.15, 397.78 -0.6 M374.22 -8.98 C381.83 -5.48, 391.95 -3.72, 397.78 -0.6" stroke="#1971c2" stroke-width="2" fill="none"></path></g></g><mask></mask><g stroke-linecap="round" transform="translate(3930.4649019505387 32.58387481703494) rotate(0 291.5816799132044 155.1615653820511)"><path d="M32 0 C230.76 1, 429.04 1.38, 551.16 0 M32 0 C187.28 1.55, 341.87 2.17, 551.16 0 M551.16 0 C573.59 -0.75, 581.94 12.49, 583.16 32 M551.16 0 C572.26 -0.88, 584.2 12.45, 583.16 32 M583.16 32 C585.19 113.74, 585.23 199.49, 583.16 278.32 M583.16 32 C585.52 114.23, 585.62 195.9, 583.16 278.32 M583.16 278.32 C582.97 301.02, 573.77 310.96, 551.16 310.32 M583.16 278.32 C584.16 298.63, 574.28 312.45, 551.16 310.32 M551.16 310.32 C361.7 308.98, 173.54 308.94, 32 310.32 M551.16 310.32 C389.6 311.69, 228.82 311.13, 32 310.32 M32 310.32 C12.49 312.18, -1.04 300.28, 0 278.32 M32 310.32 C12.78 308.64, 1.52 300.78, 0 278.32 M0 278.32 C-1.84 224.89, -0.44 170.88, 0 32 M0 278.32 C-0.49 193.12, -0.45 109.64, 0 32 M0 32 C1.54 11.78, 8.77 -0.23, 32 0 M0 32 C1.59 12.44, 12.81 -0.64, 32 0" stroke="#1971c2" stroke-width="2" fill="none"></path></g><g transform="translate(4000.0444914264062 151.33794298456655) rotate(0 204.88992309570312 17.5)"><text x="0" y="0" font-family="Virgil, Segoe UI Emoji" font-size="28px" fill="#1971c2" text-anchor="start" style="white-space: pre;" direction="ltr" dominant-baseline="text-before-edge">Stand alone + Relevant Docs</text></g><g stroke-linecap="round"><g transform="translate(3533.1902630699624 175.4747992545308) rotate(0 167.79527023470382 2.4495324432389225)"><path d="M0.65 -0.3 C56.49 0.43, 279.36 4.51, 335.24 5.47 M-0.47 -1.5 C55.17 -0.61, 278.14 2.83, 334.11 3.64" stroke="#1971c2" stroke-width="2" fill="none"></path></g><g transform="translate(3533.1902630699624 175.4747992545308) rotate(0 167.79527023470382 2.4495324432389225)"><path d="M310.49 11.84 C317.39 8.53, 326.31 7.09, 334.11 3.64 M310.49 11.84 C318.61 9.05, 327.7 6.48, 334.11 3.64" stroke="#1971c2" stroke-width="2" fill="none"></path></g><g transform="translate(3533.1902630699624 175.4747992545308) rotate(0 167.79527023470382 2.4495324432389225)"><path d="M310.75 -5.26 C317.72 -3.16, 326.56 0.82, 334.11 3.64 M310.75 -5.26 C318.76 -2.18, 327.77 1.12, 334.11 3.64" stroke="#1971c2" stroke-width="2" fill="none"></path></g></g><mask></mask><g stroke-linecap="round"><g transform="translate(4559.153718404949 172.5059475503424) rotate(0 158.11203410355074 0)"><path d="M0.47 -0.64 C53.28 -0.62, 264.08 -0.55, 316.61 -0.34 M-0.73 1.64 C51.97 1.87, 263.32 1.53, 315.86 1.02" stroke="#1971c2" stroke-width="2" fill="none"></path></g><g transform="translate(4559.153718404949 172.5059475503424) rotate(0 158.11203410355074 0)"><path d="M292.41 9.68 C297.92 7.8, 304.98 3.71, 315.86 1.02 M292.41 9.68 C300.22 5.83, 308.39 3.12, 315.86 1.02" stroke="#1971c2" stroke-width="2" fill="none"></path></g><g transform="translate(4559.153718404949 172.5059475503424) rotate(0 158.11203410355074 0)"><path d="M292.32 -7.42 C297.8 -4.52, 304.87 -3.83, 315.86 1.02 M292.32 -7.42 C300.22 -5.29, 308.42 -2.02, 315.86 1.02" stroke="#1971c2" stroke-width="2" fill="none"></path></g></g><mask></mask><g stroke-linecap="round"><g transform="translate(5496.2405556585645 177.38625596148177) rotate(0 89.75689137841164 -0.25538547679889234)"><path d="M0.7 -0.31 C30.62 -0.23, 149.52 -0.61, 179.14 -0.48 M-0.39 -1.52 C29.37 -1.15, 147.81 1.05, 177.99 1.07" stroke="#1971c2" stroke-width="2" fill="none"></path></g><g transform="translate(5496.2405556585645 177.38625596148177) rotate(0 89.75689137841164 -0.25538547679889234)"><path d="M154.41 9.37 C160.23 6.39, 167.09 2.93, 177.99 1.07 M154.41 9.37 C163.28 6.82, 172.61 2.19, 177.99 1.07" stroke="#1971c2" stroke-width="2" fill="none"></path></g><g transform="translate(5496.2405556585645 177.38625596148177) rotate(0 89.75689137841164 -0.25538547679889234)"><path d="M154.59 -7.73 C160.23 -6.15, 167.03 -5.06, 177.99 1.07 M154.59 -7.73 C163.39 -3.82, 172.66 -2, 177.99 1.07" stroke="#1971c2" stroke-width="2" fill="none"></path></g></g><mask></mask><g stroke-linecap="round"><g transform="translate(4359.908428500296 570.1469118453399) rotate(0 -4.802357335456691 -86.98096228277177)"><path d="M0.64 -0.72 C-0.65 -29.73, -6.87 -145.76, -8.69 -174.44 M-0.48 1.52 C-1.77 -27.29, -7.34 -143.82, -9.16 -173.15" stroke="#1971c2" stroke-width="2" fill="none"></path></g><g transform="translate(4359.908428500296 570.1469118453399) rotate(0 -4.802357335456691 -86.98096228277177)"><path d="M0.64 -150.15 C-2.64 -153.64, -4.4 -161.32, -9.16 -173.15 M0.64 -150.15 C-2.91 -158.8, -7.95 -168.38, -9.16 -173.15" stroke="#1971c2" stroke-width="2" fill="none"></path></g><g transform="translate(4359.908428500296 570.1469118453399) rotate(0 -4.802357335456691 -86.98096228277177)"><path d="M-16.43 -149.24 C-15.95 -153.02, -13.94 -160.9, -9.16 -173.15 M-16.43 -149.24 C-13.17 -158.32, -11.38 -168.26, -9.16 -173.15" stroke="#1971c2" stroke-width="2" fill="none"></path></g></g><mask></mask></svg>